<svg xmlns="http://www.w3.org/2000/svg" viewBox="0 0 32 32">
  <rect width="32" height="32" rx="7" fill="#0d1117"/>
  <!-- The exact U+270E pencil outline from Segoe UI Symbol (the same glyph as the
       header brand), with its tip contour enlarged 1.45x and slid against the body
       so it stays legible at 16px. -->
  <path fill="#4493f8" d="M7.36 13.41Q7.1 13.14 7.1 12.78Q7.1 12.4 7.39 12.1L12.06 7.45Q12.39 7.12 12.79 7.12Q13.15 7.12 13.41 7.38L26.78 20.75Q27.04 21.01 27.04 21.35Q27.04 21.77 26.71 22.1L22.01 26.8Q21.71 27.06 21.33 27.06Q20.98 27.06 20.74 26.82L7.36 13.41ZM10.65 6.05L6.02 10.68Q5.67 11.03 5.26 11.03Q4.91 11.03 4.67 10.78Q4.6 10.71 4.46 10.55Q4.32 10.39 4.15 10.19Q3.99 10 3.82 9.8Q3.64 9.59 3.52 9.45Q3.26 9.15 3.13 8.7Q3 8.25 3 7.73Q3 6.9 3.34 5.99Q3.68 5.09 4.39 4.38Q5.12 3.65 5.97 3.34Q6.82 3.03 7.6 3.03Q8.15 3.03 8.63 3.16Q9.11 3.29 9.44 3.53L10.78 4.69Q10.98 4.95 10.98 5.28Q10.98 5.72 10.65 6.05ZM27.73 28.71L23.49 27.9Q23.36 27.85 23.22 27.81Q23.11 27.77 23.01 27.69Q22.83 27.52 22.83 27.29Q22.83 26.94 23.21 26.56L26.65 23.11Q26.83 22.97 27.01 22.87Q27.18 22.76 27.36 22.76Q27.5 22.76 27.71 22.91Q27.89 23.14 27.97 23.42L28.76 27.67L28.79 27.9Q28.79 28.25 28.59 28.51Q28.31 28.72 27.94 28.72Q27.81 28.72 27.73 28.71Z"/>
</svg>
